<?xml version="1.0" standalone="no"?>
<!DOCTYPE svg PUBLIC "-//W3C//DTD SVG 20010904//EN"
 "http://www.w3.org/TR/2001/REC-SVG-20010904/DTD/svg10.dtd">
<svg version="1.0" xmlns="http://www.w3.org/2000/svg"
 width="300.000000pt" height="300.000000pt" viewBox="0 0 300.000000 300.000000"
 preserveAspectRatio="xMidYMid meet">
<metadata>
Created by potrace 1.11, written by Peter Selinger 2001-2013
</metadata>
<g transform="translate(0.000000,300.000000) scale(0.100000,-0.100000)"
fill="#000000" stroke="none">
<path d="M0 1500 l0 -1500 1500 0 1500 0 0 1500 0 1500 -1500 0 -1500 0 0
-1500z m1751 474 c102 -47 151 -126 157 -250 3 -67 0 -90 -18 -132 -20 -47
-67 -100 -102 -116 -10 -5 -10 -7 2 -12 8 -4 34 -25 56 -48 35 -35 43 -50 53
-107 6 -36 11 -125 11 -197 l0 -132 -121 0 c-112 0 -121 1 -113 18 4 9 9 70
12 135 7 208 -18 238 -210 245 l-118 4 0 -201 0 -201 -125 0 -125 0 0 511 0
510 298 -3 c278 -3 300 -4 343 -24z"/>
<path d="M1360 1685 l0 -135 108 0 c121 0 174 11 207 44 51 51 38 161 -24 203
-31 21 -45 23 -162 23 l-129 0 0 -135z"/>
</g>
</svg>
